<svg xmlns="http://www.w3.org/2000/svg" width="432" height="176" class="svgbob"><style>.svgbob line, .svgbob path, .svgbob circle, .svgbob rect, .svgbob polygon {
    stroke: black;
    stroke-width: 2;
    stroke-opacity: 1;
    fill-opacity: 1;
    stroke-linecap: round;
    stroke-linejoin: miter;
}
.svgbob text {
    white-space: pre;
    fill: black;
    font-family: Iosevka Fixed, monospace;
    font-size: 14px;
}
.svgbob rect.backdrop {
    stroke: none;
    fill: white;
}
.svgbob .broken {
    stroke-dasharray: 8;
}
.svgbob .filled {
    fill: black;
}
.svgbob .bg_filled {
    fill: white;
    stroke-width: 1;
}
.svgbob .nofill {
    fill: white;
}
.svgbob .end_marked_arrow {
    marker-end: url(#arrow);
}
.svgbob .start_marked_arrow {
    marker-start: url(#arrow);
}
.svgbob .end_marked_diamond {
    marker-end: url(#diamond);
}
.svgbob .start_marked_diamond {
    marker-start: url(#diamond);
}
.svgbob .end_marked_circle {
    marker-end: url(#circle);
}
.svgbob .start_marked_circle {
    marker-start: url(#circle);
}
.svgbob .end_marked_open_circle {
    marker-end: url(#open_circle);
}
.svgbob .start_marked_open_circle {
    marker-start: url(#open_circle);
}
.svgbob .end_marked_big_open_circle {
    marker-end: url(#big_open_circle);
}
.svgbob .start_marked_big_open_circle {
    marker-start: url(#big_open_circle);
}<!--separator--></style><defs><marker id="arrow" viewBox="-2 -2 8 8" refX="4" refY="2" markerWidth="7" markerHeight="7" orient="auto-start-reverse"><polygon points="0,0 0,4 4,2 0,0"></polygon></marker><marker id="diamond" viewBox="-2 -2 8 8" refX="4" refY="2" markerWidth="7" markerHeight="7" orient="auto-start-reverse"><polygon points="0,2 2,0 4,2 2,4 0,2"></polygon></marker><marker id="circle" viewBox="0 0 8 8" refX="4" refY="4" markerWidth="7" markerHeight="7" orient="auto-start-reverse"><circle cx="4" cy="4" r="2" class="filled"></circle></marker><marker id="open_circle" viewBox="0 0 8 8" refX="4" refY="4" markerWidth="7" markerHeight="7" orient="auto-start-reverse"><circle cx="4" cy="4" r="2" class="bg_filled"></circle></marker><marker id="big_open_circle" viewBox="0 0 8 8" refX="4" refY="4" markerWidth="7" markerHeight="7" orient="auto-start-reverse"><circle cx="4" cy="4" r="3" class="bg_filled"></circle></marker></defs><rect class="backdrop" x="0" y="0" width="432" height="176"></rect><text x="2" y="12" >[mem</text><text x="2" y="28" >[mem</text><text x="2" y="44" >[mem</text><text x="2" y="60" >[mem</text><text x="2" y="76" >[mem</text><text x="2" y="92" >[mem</text><text x="2" y="108" >[mem</text><text x="2" y="124" >[mem</text><text x="2" y="140" >[mem</text><text x="2" y="156" >[mem</text><text x="42" y="12" >0x0000000000000000</text><line x1="184" y1="8" x2="192" y2="8" class="solid"></line><text x="194" y="12" >0x000000000009efff]</text><text x="42" y="28" >0x000000000009f000</text><line x1="184" y1="24" x2="192" y2="24" class="solid"></line><text x="194" y="28" >0x00000000000fffff]</text><text x="42" y="44" >0x0000000000100000</text><line x1="184" y1="40" x2="192" y2="40" class="solid"></line><text x="194" y="44" >0x000000006a5b6fff]</text><text x="42" y="60" >0x000000006a5b7000</text><line x1="184" y1="56" x2="192" y2="56" class="solid"></line><text x="194" y="60" >0x000000006a66efff]</text><text x="42" y="76" >0x000000006a66f000</text><line x1="184" y1="72" x2="192" y2="72" class="solid"></line><text x="194" y="76" >0x000000006e794fff]</text><text x="42" y="92" >0x000000006e795000</text><line x1="184" y1="88" x2="192" y2="88" class="solid"></line><text x="194" y="92" >0x000000006fb1efff]</text><text x="42" y="108" >0x000000006fb1f000</text><line x1="184" y1="104" x2="192" y2="104" class="solid"></line><text x="194" y="108" >0x000000006fc4efff]</text><text x="42" y="124" >0x000000006fc4f000</text><line x1="184" y1="120" x2="192" y2="120" class="solid"></line><text x="194" y="124" >0x000000006fc4ffff]</text><text x="42" y="140" >0x000000006fc50000</text><line x1="184" y1="136" x2="192" y2="136" class="solid"></line><text x="194" y="140" >0x000000007d7fffff]</text><text x="42" y="156" >0x0000000100000000</text><line x1="184" y1="152" x2="192" y2="152" class="solid"></line><text x="194" y="156" >0x00000004807fffff]</text><text x="354" y="12" >usable</text><text x="354" y="28" >reserved</text><text x="354" y="44" >usable</text><text x="354" y="60" >type</text><text x="394" y="60" >20</text><text x="354" y="76" >reserved</text><text x="354" y="92" >ACPI</text><text x="394" y="92" >NVS</text><text x="354" y="108" >ACPI</text><text x="394" y="108" >data</text><text x="354" y="124" >usable</text><text x="354" y="140" >reserved</text><text x="354" y="156" >usable</text></svg>